<?xml version="1.0" encoding="UTF-8"?>
<!-- Generator: visioncortex VTracer 0.6.5 -->
<svg version="1.1" xmlns="http://www.w3.org/2000/svg" width="1024" height="1024" viewBox="240 230 540 570">
<path d="M0,0 L7,1 L30,14 L57,30 L80,43 L95,52 L121,67 L140,78 L169,95 L193,109 L210,119 L239,136 L247,141 L247,424 L232,433 L206,448 L180,463 L156,477 L128,493 L104,507 L78,522 L52,537 L26,552 L5,564 L-1,563 L-27,548 L-51,534 L-79,518 L-105,503 L-129,489 L-152,476 L-171,465 L-197,450 L-221,436 L-241,424 L-241,141 L-219,128 L-190,111 L-161,94 L-135,79 L-113,66 L-87,51 L-63,37 L-34,20 L-8,5 Z " fill="#0A6362" transform="translate(509,230)"/>
<path d="M0,0 L23,0 L35,3 L49,10 L60,19 L68,29 L75,43 L79,59 L79,85 L87,86 L95,91 L100,97 L103,105 L103,211 L99,219 L94,225 L85,230 L-61,230 L-71,224 L-77,216 L-79,211 L-79,104 L-74,94 L-67,88 L-60,85 L-55,85 L-55,58 L-51,43 L-44,29 L-35,19 L-26,11 L-16,5 L-5,1 Z " fill="#0B304E" transform="translate(500,394)"/>
<path d="M0,0 L1,0 L1,55 L-19,59 L-31,64 L-42,72 L-52,82 L-59,94 L-63,105 L-65,114 L-66,141 L-76,144 L-84,150 L-89,160 L-89,267 L-84,277 L-76,283 L-68,286 L1,287 L1,289 L3,290 L2,291 L1,357 L-4,356 L-15,350 L-19,347 L-19,345 L-23,344 L-27,342 L-35,340 L-59,326 L-81,313 L-110,296 L-136,281 L-153,271 L-155,269 L-155,88 L-142,80 L-116,65 L-101,56 L-75,41 L-67,36 L-60,34 L-38,21 L-31,18 L-28,15 L-18,9 L-13,7 L-6,2 Z " fill="#0CC095" transform="translate(511,338)"/>
<path d="M0,0 L11,6 L34,19 L56,32 L82,47 L104,60 L125,72 L154,89 L183,106 L209,121 L220,128 L220,130 L194,146 L175,158 L157,169 L153,168 L127,153 L105,140 L81,126 L57,112 L29,96 L4,81 L0,79 Z " fill="#0AA984" transform="translate(517,248)"/>
<path d="M0,0 L1,0 L1,78 L-8,84 L-34,99 L-51,109 L-75,123 L-99,137 L-123,151 L-150,167 L-153,169 L-158,168 L-177,156 L-201,141 L-218,130 L-218,127 L-190,111 L-168,98 L-142,83 L-115,67 L-94,55 L-70,41 L-41,24 L-15,9 Z " fill="#0DC094" transform="translate(506,248)"/>
<path d="M0,0 L4,1 L24,13 L33,19 L59,35 L64,38 L64,221 L2,252 L0,252 Z " fill="#0CC094" transform="translate(282,387)"/>
<path d="M0,0 L2,0 L2,252 L-10,247 L-62,221 L-62,39 L-53,33 L-37,23 L-26,16 L-5,3 Z " fill="#0AA983" transform="translate(740,387)"/>
<path d="M0,0 L6,2 L62,30 L65,33 L52,41 L24,57 L0,71 L-28,87 L-52,101 L-80,117 L-97,127 L-125,143 L-149,157 L-155,160 L-155,91 L-140,82 L-111,65 L-92,54 L-65,38 L-41,24 L-17,10 L-2,1 Z " fill="#0AA983" transform="translate(672,616)"/>
<path d="M0,0 L4,1 L33,18 L57,32 L81,46 L110,63 L132,76 L151,87 L157,91 L157,160 L143,152 L115,136 L89,121 L65,107 L42,94 L18,80 L-7,66 L-22,57 L-50,41 L-63,33 L-58,29 Z " fill="#0CC094" transform="translate(350,616)"/>
<path d="M0,0 L13,0 L26,4 L35,11 L41,18 L46,28 L48,35 L48,59 L-34,59 L-34,35 L-30,23 L-23,13 L-15,6 L-7,2 Z " fill="#09A983" transform="translate(505,420)"/>
<path d="M0,0 L12,0 L20,5 L24,10 L26,14 L26,25 L23,32 L18,37 L19,46 L25,72 L25,74 L-13,74 L-10,59 L-5,39 L-4,37 L-8,35 L-13,28 L-14,25 L-14,15 L-10,7 L-4,2 Z " fill="#09A982" transform="translate(506,515)"/>
<path d="M0,0 L7,0 L8,1 L8,56 L-32,56 L-32,29 L-28,20 L-22,11 L-14,4 L-5,1 Z " fill="#0DC094" transform="translate(504,422)"/>
<path d="M0,0 L6,0 L6,70 L-10,70 L-9,60 L-6,51 L-3,32 L-7,31 L-9,27 L-11,27 L-13,21 L-12,13 L-7,5 L-6,2 Z " fill="#0FBE94" transform="translate(506,517)"/>
<path d="M0,0 L6,2 L33,18 L59,33 L76,43 L97,55 L122,70 L136,78 L156,90 L157,91 L157,273 L134,286 L109,301 L103,303 L103,301 L115,295 L116,293 L119,293 L119,291 L123,290 L126,286 L132,286 L132,284 L137,281 L145,276 L149,275 L152,272 L155,272 L154,149 L154,92 L147,88 L147,86 L140,84 L135,80 L125,75 L120,72 L106,64 L95,58 L95,56 L91,55 L88,54 L88,52 L83,50 L72,44 L70,43 L70,41 L61,38 L61,36 L57,35 L36,23 L14,10 L3,3 L-6,6 L-14,12 L-21,15 L-28,19 L-30,19 L-31,22 L-47,30 L-62,39 L-65,38 L-41,24 L-12,7 Z " fill="#1F9886" transform="translate(511,335)"/>
<path d="M0,0 L2,0 L2,252 L-10,247 L-62,221 L-62,39 L-53,33 L-37,23 L-26,16 L-5,3 Z M-7,6 L-12,9 L-13,11 L-25,17 L-33,22 L-33,24 L-39,26 L-39,28 L-45,30 L-49,32 L-49,34 L-53,35 L-59,41 L-60,44 L-60,219 L-57,222 L-53,222 L-53,224 L-46,227 L-32,234 L-16,242 L-13,242 L-13,244 L-4,248 L0,246 L1,241 L1,33 L0,30 L0,9 L-2,6 Z " fill="#269D8B" transform="translate(740,387)"/>
<path d="M0,0 L4,1 L24,13 L33,19 L59,35 L64,38 L64,221 L2,252 L0,252 Z M1,3 L1,246 L2,248 L9,247 L15,244 L15,242 L25,239 L31,236 L32,234 L45,229 L49,227 L49,225 L53,225 L53,223 L59,222 L59,220 L62,220 L62,39 L51,32 L48,32 L47,29 L42,28 L42,26 L37,24 L28,19 L26,19 L26,16 L21,13 L18,13 L18,11 L12,8 L10,8 L10,6 L5,3 Z " fill="#29AF99" transform="translate(282,387)"/>
<path d="M0,0 L14,0 L26,3 L31,6 L43,15 L47,17 L51,21 L51,23 L53,23 L55,28 L57,28 L63,40 L66,46 L69,54 L70,83 L71,85 L79,87 L85,92 L85,94 L88,95 L92,104 L93,107 L94,179 L93,211 L90,220 L81,230 L74,234 L72,235 L10,235 L4,236 L0,235 L0,233 L-69,233 L-69,232 L73,231 L83,225 L88,218 L90,213 L90,107 L86,97 L79,91 L72,88 L67,87 L66,61 L62,45 L55,31 L46,20 L35,12 L21,5 L11,3 L-6,2 L-6,1 Z " fill="#219483" transform="translate(512,392)"/>
<path d="M0,0 L4,1 L4,3 L-16,7 L-28,12 L-39,20 L-49,30 L-56,42 L-60,53 L-62,62 L-63,89 L-73,92 L-81,98 L-86,108 L-86,215 L-81,225 L-73,231 L-65,234 L4,235 L4,236 L-70,237 L-71,234 L-80,231 L-86,224 L-89,212 L-89,112 L-87,102 L-84,96 L-82,96 L-81,93 L-79,93 L-79,91 L-66,87 L-64,87 L-64,60 L-63,53 L-58,41 L-54,31 L-49,27 L-48,25 L-46,25 L-46,22 L-44,22 L-44,19 L-37,13 L-30,11 L-25,7 L-23,7 L-23,5 L-16,3 L-5,2 Z " fill="#299E8D" transform="translate(508,390)"/>
<path d="M0,0 L6,2 L33,18 L59,33 L85,48 L109,62 L131,75 L157,90 L168,97 L168,99 L142,115 L123,127 L105,138 L101,137 L75,122 L74,120 L82,122 L82,124 L87,125 L87,127 L90,127 L90,129 L94,130 L98,133 L106,134 L109,132 L112,132 L112,130 L116,129 L116,127 L122,126 L122,124 L130,120 L132,120 L132,118 L138,116 L138,114 L147,108 L150,108 L150,106 L156,103 L159,103 L160,100 L163,100 L163,96 L161,96 L161,94 L157,93 L144,86 L144,84 L139,83 L124,74 L114,68 L96,58 L96,56 L91,55 L76,46 L68,42 L65,39 L51,32 L51,30 L42,27 L34,21 L28,18 L15,10 L7,6 L0,1 Z " fill="#249A88" transform="translate(569,279)"/>
<path d="M0,0 L2,0 L2,2 L-9,8 L-11,8 L-11,10 L-21,15 L-29,20 L-38,25 L-48,31 L-59,38 L-62,41 L-63,47 L-63,217 L-61,222 L-56,224 L-53,227 L-59,225 L-66,220 L-66,39 L-53,31 L-27,16 L-12,7 Z " fill="#25AA94" transform="translate(422,387)"/>
<path d="M0,0 L2,0 L2,2 L-9,8 L-11,8 L-12,11 L-16,11 L-16,13 L-24,17 L-33,22 L-35,22 L-35,25 L-29,27 L-21,32 L-21,34 L-15,36 L-15,38 L-7,40 L-6,43 L-1,46 L6,49 L12,53 L12,55 L17,57 L20,59 L29,60 L34,56 L41,53 L43,53 L43,51 L49,48 L53,47 L54,44 L58,43 L59,41 L65,40 L65,38 L68,38 L69,35 L71,35 L71,33 L85,26 L88,26 L88,24 L98,18 L107,14 L113,12 L113,10 L116,10 L117,7 L123,4 L127,5 L105,18 L81,32 L57,46 L30,62 L27,64 L22,63 L3,51 L-21,36 L-38,25 L-38,22 L-10,6 Z " fill="#2AAE97" transform="translate(326,353)"/>
<path d="M0,0 L6,2 L33,18 L59,33 L76,43 L97,55 L122,70 L136,78 L156,90 L157,92 L153,91 L147,88 L147,86 L140,84 L135,80 L125,75 L120,72 L106,64 L95,58 L95,56 L91,55 L88,54 L88,52 L83,50 L72,44 L70,43 L70,41 L61,38 L61,36 L57,35 L36,23 L14,10 L3,3 L-6,6 L-14,12 L-21,15 L-28,19 L-30,19 L-31,22 L-47,30 L-62,39 L-65,38 L-41,24 L-12,7 Z " fill="#239A89" transform="translate(511,335)"/>
<path d="M0,0 L12,0 L20,5 L24,10 L26,14 L26,25 L23,32 L18,37 L19,46 L25,72 L25,74 L-13,74 L-10,59 L-5,39 L-4,37 L-8,35 L-13,28 L-14,25 L-14,15 L-10,7 L-4,2 Z M0,2 L-6,4 L-11,14 L-13,18 L-12,26 L-11,29 L-9,29 L-7,33 L-3,34 L-7,58 L-10,66 L-10,72 L13,72 L20,71 L21,65 L19,57 L18,50 L16,43 L15,34 L19,32 L22,30 L24,23 L24,13 L23,11 L21,11 L21,8 L19,8 L17,4 L9,2 Z " fill="#229484" transform="translate(506,515)"/>
<path d="M0,0 L4,1 L33,18 L57,32 L81,46 L110,63 L128,74 L126,75 L118,71 L114,69 L114,67 L110,66 L92,56 L92,54 L88,53 L76,46 L70,43 L70,41 L61,38 L56,35 L48,30 L39,24 L30,19 L25,17 L20,13 L17,12 L17,10 L11,9 L10,6 L5,5 L-3,3 L-3,5 L-13,9 L-15,9 L-15,11 L-25,16 L-46,26 L-55,33 L-56,35 L-52,37 L-51,39 L-57,37 L-63,33 L-58,29 Z " fill="#29AF98" transform="translate(350,616)"/>
<path d="M0,0 L13,0 L26,4 L35,11 L41,18 L46,28 L48,35 L48,59 L-34,59 L-34,35 L-33,35 L-33,58 L42,56 L44,57 L44,37 L41,25 L39,24 L37,17 L32,12 L27,8 L20,5 L19,4 L6,3 L-1,3 L-10,4 L-7,2 Z " fill="#249486" transform="translate(505,420)"/>
<path d="M0,0 L2,1 L-6,6 L-8,6 L-8,8 L-16,12 L-18,12 L-18,14 L-28,19 L-30,19 L-30,21 L-38,26 L-43,28 L-54,34 L-60,38 L-62,38 L-64,42 L-65,43 L-65,103 L-61,102 L-51,96 L-46,94 L-35,88 L-33,89 L-55,102 L-67,109 L-68,109 L-68,40 L-53,31 L-24,14 L-5,3 Z " fill="#229886" transform="translate(585,667)"/>
<path d="M0,0 L6,2 L62,30 L65,33 L52,41 L48,42 L49,39 L56,35 L59,35 L60,31 L54,29 L40,22 L31,18 L17,10 L5,4 L-3,4 L-14,11 L-20,14 L-21,16 L-23,16 L-23,18 L-30,21 L-38,25 L-49,32 L-54,33 L-56,37 L-65,41 L-68,41 L-68,43 L-83,51 L-85,50 L-65,38 L-41,24 L-17,10 L-2,1 Z " fill="#239A88" transform="translate(672,616)"/>
<path d="M0,0 L1,0 L1,78 L-8,84 L-11,85 L-11,82 L-8,82 L-7,79 L-1,77 L-2,6 L-7,7 L-11,8 L-12,11 L-18,12 L-18,14 L-25,16 L-27,20 L-38,26 L-47,31 L-55,35 L-57,37 L-64,40 L-68,41 L-65,38 L-41,24 L-15,9 Z " fill="#2BA895" transform="translate(506,248)"/>
<path d="M0,0 L5,2 L7,3 L7,286 L1,289 L1,287 L3,287 L4,284 L6,284 L6,5 L4,5 L2,3 L0,2 Z " fill="#0C2638" transform="translate(749,368)"/>
<path d="M0,0 L5,1 L9,4 L2,4 L2,243 L8,241 L12,242 L6,245 L1,245 L0,243 Z " fill="#1AB896" transform="translate(283,390)"/>
<path d="M0,0 L4,1 L24,13 L26,16 L21,14 L18,13 L18,11 L12,9 L10,8 L10,6 L1,3 L1,246 L0,246 Z " fill="#34B7A1" transform="translate(282,387)"/>
<path d="M0,0 L1,4 L-6,11 L-13,15 L-15,16 L-77,16 L-83,17 L-87,16 L-87,14 L-156,14 L-156,13 L-14,12 L-4,6 Z " fill="#19897C" transform="translate(599,611)"/>
<path d="M0,0 L16,0 L22,4 L22,6 L24,6 L29,14 L29,27 L24,37 L22,37 L22,50 L23,51 L24,59 L26,63 L26,69 L28,69 L29,74 L26,77 L15,78 L11,75 L26,75 L21,57 L18,43 L18,38 L24,32 L26,26 L26,15 L21,7 L13,2 L1,2 L-7,7 L-11,13 L-12,16 L-12,26 L-9,33 L-12,33 L-14,28 L-15,15 L-13,15 L-12,8 L-10,8 L-9,4 Z M22,44 Z " fill="#02454D" transform="translate(505,514)"/>
<path d="M0,0 L11,6 L34,19 L52,30 L49,31 L35,23 L27,18 L22,16 L17,12 L12,10 L5,5 L2,4 L3,8 L3,76 L4,78 L8,80 L8,82 L2,80 L0,79 Z " fill="#229F8A" transform="translate(517,248)"/>
<path d="M0,0 L5,2 L5,71 L-9,63 L-37,47 L-47,41 L-45,40 L-40,43 L-35,45 L-25,50 L-20,54 L-15,56 L-15,58 L-6,61 L-5,64 L2,62 L2,4 Z " fill="#2AAD97" transform="translate(502,705)"/>
<path d="M0,0 L1,0 L2,98 L5,108 L11,116 L20,121 L24,122 L93,123 L93,124 L19,125 L18,122 L9,119 L3,112 L0,100 Z " fill="#30B59E" transform="translate(419,502)"/>
<path d="M0,0 L6,1 L6,3 L12,5 L12,7 L18,9 L24,12 L24,14 L33,17 L33,19 L39,21 L48,26 L48,28 L52,28 L52,30 L56,31 L65,36 L74,42 L84,46 L84,48 L86,48 L86,50 L91,51 L91,53 L101,56 L101,58 L103,58 L103,60 L112,63 L114,64 L114,66 L118,68 L116,69 L90,54 L73,44 L49,30 L21,14 L0,1 Z " fill="#229886" transform="translate(525,330)"/>
<path d="M0,0 L2,0 L2,2 L0,2 L0,4 L-10,9 L-12,9 L-12,11 L-21,15 L-23,15 L-24,18 L-33,22 L-34,24 L-43,28 L-45,28 L-45,30 L-52,33 L-56,35 L-59,38 L-67,42 L-78,48 L-91,56 L-93,56 L-95,60 L-104,63 L-108,64 L-105,61 L-79,46 L-55,32 L-36,21 L-12,7 Z " fill="#2AAD98" transform="translate(436,289)"/>
<path d="M0,0 L4,1 L-9,9 L-33,23 L-57,37 L-67,43 L-72,42 L-88,33 L-101,25 L-97,24 L-89,28 L-85,32 L-74,38 L-68,41 L-66,41 L-66,39 L-61,37 L-60,35 L-55,32 L-50,30 L-42,25 L-39,25 L-38,22 L-33,20 L-22,14 L-20,14 L-20,12 L-13,10 L-13,8 L-10,8 L-10,6 L-3,2 Z " fill="#209885" transform="translate(581,655)"/>
<path d="M0,0 L6,0 L2,2 L-7,5 L-12,6 L-16,7 L-17,11 L-23,19 L-29,29 L-29,52 L-28,54 L8,55 L8,56 L-32,56 L-32,29 L-28,20 L-22,11 L-14,4 L-5,1 Z M-22,17 Z M-23,18 Z " fill="#28B59B" transform="translate(504,422)"/>
<path d="M0,0 L6,2 L21,11 L30,16 L37,19 L45,25 L52,28 L52,30 L57,31 L61,33 L61,35 L68,36 L75,41 L84,46 L89,50 L103,57 L103,59 L106,60 L104,61 L79,47 L62,37 L39,24 L22,14 L0,1 Z " fill="#28AA95" transform="translate(299,655)"/>
<path d="M0,0 L2,2 L3,6 L3,112 L-1,120 L-6,126 L-12,129 L-11,126 L-6,122 L-1,115 L1,107 L1,10 Z " fill="#004249" transform="translate(600,493)"/>
<path d="M0,0 L2,1 L-13,10 L-41,26 L-65,40 L-86,52 L-88,51 L-83,49 L-82,46 L-78,44 L-75,44 L-75,42 L-69,41 L-69,39 L-64,38 L-64,36 L-61,36 L-61,34 L-55,33 L-55,31 L-51,28 L-47,28 L-46,25 L-37,21 L-30,17 L-28,17 L-27,14 L-18,9 L-11,6 L-7,5 L-6,2 Z " fill="#239785" transform="translate(640,703)"/>
<path d="M0,0 L2,3 L0,7 L0,109 L3,118 L2,120 L-2,112 L-2,5 Z " fill="#004147" transform="translate(423,493)"/>
<path d="M0,0 L2,1 L-15,11 L-39,25 L-67,41 L-74,45 L-76,44 L-71,42 L-71,40 L-66,39 L-64,35 L-59,35 L-59,33 L-53,30 L-51,30 L-51,28 L-45,27 L-45,25 L-38,23 L-37,20 L-33,17 L-23,13 L-16,9 L-14,9 L-14,7 L-5,4 L-5,1 Z " fill="#229784" transform="translate(718,658)"/>
<path d="M0,0 L1,3 L-5,14 L-4,25 L-2,25 L1,29 L4,30 L4,38 L1,54 L-2,62 L-3,68 L13,68 L13,69 L-5,69 L-4,59 L2,35 L3,33 L-1,31 L-6,24 L-7,21 L-7,11 L-3,3 Z " fill="#2DA996" transform="translate(499,519)"/>
<path d="M0,0 L4,1 L4,3 L-16,7 L-28,12 L-39,20 L-49,30 L-54,38 L-55,35 L-54,31 L-49,27 L-48,25 L-46,25 L-46,22 L-44,22 L-44,19 L-37,13 L-30,11 L-25,7 L-23,7 L-23,5 L-16,3 L-5,2 Z " fill="#26A992" transform="translate(508,390)"/>
<path d="M0,0 L82,0 L80,2 L48,2 L41,3 L31,2 L1,2 Z " fill="#003F4A" transform="translate(472,479)"/>
<path d="M0,0 L4,1 L-9,9 L-33,23 L-55,36 L-57,36 L-57,34 L-54,34 L-54,32 L-44,26 L-41,26 L-40,23 L-28,17 L-23,14 L-20,14 L-20,12 L-15,11 L-14,8 L-4,3 Z " fill="#02474D" transform="translate(479,261)"/>
<path d="M0,0 L2,0 L2,2 L-9,8 L-11,8 L-11,10 L-21,15 L-29,20 L-38,25 L-48,31 L-59,38 L-64,39 L-65,41 L-65,38 L-39,23 L-12,7 Z " fill="#2EAC98" transform="translate(422,387)"/>
<path d="M0,0 L5,0 L5,2 L11,3 L19,8 L37,16 L45,20 L45,22 L51,23 L56,25 L58,19 L59,19 L59,27 L52,27 L0,1 Z " fill="#1F9683" transform="translate(682,609)"/>
<path d="M0,0 L1,3 L-11,9 L-14,12 L-21,15 L-28,19 L-30,19 L-31,22 L-47,30 L-62,39 L-65,38 L-41,24 L-12,7 Z " fill="#2BAB96" transform="translate(511,335)"/>
<path d="M0,0 L4,0 L4,75 L-6,81 L-7,78 L-4,78 L-3,75 L3,73 L2,2 Z " fill="#23B89B" transform="translate(502,252)"/>
<path d="M0,0 L4,1 L-11,10 L-35,24 L-37,23 L-36,21 L-31,20 L-31,18 L-27,18 L-26,15 L-19,12 L-16,9 L-4,2 L0,2 Z " fill="#26AE95" transform="translate(490,333)"/>
<path d="M0,0 L2,0 L3,2 L3,63 L4,67 L1,70 Z " fill="#004B50" transform="translate(506,706)"/>
<path d="M0,0 L2,0 L2,2 L-3,5 L-10,8 L-15,11 L-22,19 L-29,26 L-31,31 L-33,32 L-32,27 L-26,19 L-16,9 L-3,1 Z " fill="#02474C" transform="translate(487,398)"/>
<path d="M0,0 L1,0 L1,78 L0,78 L-1,11 L-2,7 Z " fill="#004C50" transform="translate(516,248)"/>
<path d="M0,0 L0,3 L-4,12 L-6,30 L-7,46 L-8,46 L-8,19 L-4,4 Z " fill="#055153" transform="translate(453,433)"/>
<path d="M0,0 L2,1 L-7,7 L-23,16 L-42,27 L-42,24 L-35,20 L-32,20 L-32,18 L-22,13 L-20,13 L-19,10 L-14,8 Z " fill="#014A4D" transform="translate(455,366)"/>
<path d="M0,0 L6,1 L10,3 L10,5 L12,5 L12,7 L21,9 L21,12 L27,14 L34,17 L36,21 L30,19 L3,3 Z " fill="#25A991" transform="translate(369,614)"/>
<path d="M0,0 L1,0 L2,64 L8,67 L8,69 L2,67 L0,66 Z " fill="#279387" transform="translate(517,261)"/>
<path d="M0,0 L14,0 L26,3 L31,7 L27,8 L21,5 L11,3 L-6,2 L-6,1 Z " fill="#1E9281" transform="translate(512,392)"/>
<path d="M0,0 L12,0 L20,5 L24,10 L25,17 L23,13 L23,11 L21,11 L21,8 L19,8 L15,4 L9,3 L0,3 L-1,4 L-6,4 L-2,1 Z " fill="#2A9E8E" transform="translate(506,515)"/>
<path d="M0,0 L7,6 L13,15 L15,20 L15,23 L12,23 L10,17 L8,16 L6,9 L1,4 Z " fill="#229484" transform="translate(536,428)"/>
<path d="M0,0 L5,1 L12,4 L16,8 L27,14 L32,16 L33,19 L29,18 L13,9 L0,1 Z " fill="#27A993" transform="translate(480,679)"/>
<path d="M0,0 L8,1 L10,5 L15,6 L21,9 L21,11 L27,13 L27,15 L30,16 L28,17 L2,2 Z " fill="#26AC94" transform="translate(450,662)"/>
<path d="M0,0 L3,1 L-1,19 L-5,36 L-6,36 L-6,25 L-4,25 L-2,8 Z " fill="#01474D" transform="translate(499,551)"/>
<path d="M0,0 L2,2 L6,18 L6,44 L5,44 L3,15 L0,5 Z " fill="#024E50" transform="translate(573,435)"/>
<path d="M0,0 L1,0 L1,27 L-9,31 L-11,30 L-9,28 L-2,27 L-1,19 L-1,5 Z " fill="#1BB495" transform="translate(443,450)"/>
<path d="M0,0 L2,1 L-6,7 L-14,11 L-27,19 L-29,17 L-3,2 Z " fill="#02464B" transform="translate(618,717)"/>
<path d="M0,0 L2,1 L-6,8 L-14,11 L-21,16 L-25,15 L-8,5 Z " fill="#024C53" transform="translate(592,651)"/>
<path d="M0,0 L2,2 L-5,7 L-12,11 L-16,16 L-17,10 Z " fill="#1A3244" transform="translate(285,361)"/>
<path d="M0,0 L5,1 L7,3 L11,4 L11,6 L16,7 L16,9 L22,11 L27,13 L27,15 L29,16 L27,17 L1,2 Z " fill="#27AC95" transform="translate(422,645)"/>
<path d="M0,0 L2,1 L-18,13 L-25,17 L-27,17 L-27,15 L-22,12 L-7,4 L-3,1 Z " fill="#219B87" transform="translate(612,638)"/>
<path d="M0,0 L1,4 L-6,11 L-13,15 L-15,16 L-22,16 L-18,15 L-18,13 L-8,9 L-3,5 Z " fill="#209685" transform="translate(599,611)"/>
<path d="M0,0 L0,3 L-6,11 L-8,18 L-11,25 L-13,25 L-12,18 L-7,8 Z " fill="#2DA392" transform="translate(485,430)"/>
<path d="M0,0 L2,3 L2,5 L4,6 L4,16 L5,27 L2,30 L1,7 Z " fill="#013E4B" transform="translate(551,448)"/>
<path d="M0,0 L23,0 L23,1 L4,3 L-8,3 L-5,1 Z " fill="#024950" transform="translate(500,394)"/>
<path d="M0,0 L11,6 L27,16 L24,17 L21,16 L21,14 L16,12 L6,6 L1,4 Z " fill="#014E52" transform="translate(299,385)"/>
<path d="M0,0 L3,1 L-12,10 L-19,14 L-22,13 L-12,7 L-7,4 Z " fill="#025154" transform="translate(480,351)"/>
<path d="M0,0 L8,2 L11,4 L11,6 L16,7 L16,9 L22,11 L26,15 L21,13 L0,1 Z " fill="#29AB93" transform="translate(429,730)"/>
<path d="M0,0 L6,2 L13,5 L14,8 L23,11 L24,14 L18,12 L0,1 Z " fill="#2AAB95" transform="translate(405,716)"/>
<path d="M0,0 L12,7 L23,14 L24,16 L19,14 L16,13 L16,11 L10,9 L8,8 L8,6 L-1,3 Z " fill="#2FB19C" transform="translate(284,387)"/>
<path d="M0,0 L6,2 L12,5 L22,10 L23,12 L17,11 L0,1 Z " fill="#2AB199" transform="translate(455,745)"/>
<path d="M0,0 L6,2 L23,12 L24,14 L19,12 L10,8 L10,6 L4,4 L0,2 Z " fill="#2BAD97" transform="translate(478,691)"/>
<path d="M0,0 L2,0 L3,3 L-5,11 L-10,19 L-11,16 L-10,12 L-5,8 L-4,6 L-2,6 L-2,3 L0,3 Z " fill="#29A28F" transform="translate(464,409)"/>
<path d="M0,0 L3,1 L-14,11 L-19,13 L-18,10 L-5,3 Z " fill="#02464C" transform="translate(314,358)"/>
<path d="M0,0 L4,1 L-16,13 L-18,13 L-16,9 L-11,7 Z " fill="#01464C" transform="translate(339,343)"/>
<path d="M0,0 L2,1 L-14,11 L-20,13 L-20,11 L-8,5 L-7,3 L-4,3 L-4,1 Z " fill="#269C8B" transform="translate(634,625)"/>
<path d="M0,0 L3,1 L-8,12 L-10,17 L-12,18 L-11,13 L-5,5 Z " fill="#013D45" transform="translate(466,412)"/>
<path d="M0,0 L2,0 L2,30 L0,27 L0,6 L-1,4 L-4,2 Z " fill="#18A386" transform="translate(739,390)"/>
<path d="M0,0 L4,1 L-16,13 L-18,13 L-18,11 L-6,4 Z " fill="#02494D" transform="translate(502,248)"/>
<path d="M0,0 L10,2 L10,4 L12,4 L17,10 L11,8 L0,1 Z " fill="#25A992" transform="translate(405,635)"/>
<path d="M0,0 L2,0 L2,3 L-9,9 L-14,8 L-14,7 L-8,5 Z " fill="#193042" transform="translate(523,785)"/>
<path d="M0,0 L3,1 L-14,11 L-17,10 L-11,6 L-8,6 L-8,4 Z " fill="#01484E" transform="translate(597,658)"/>
<path d="M0,0 L2,1 L-1,4 L-4,4 L-6,8 L-11,11 L-16,11 L-11,7 Z " fill="#014B52" transform="translate(719,388)"/>
<path d="M0,0 L3,1 L-17,13 L-19,13 L-19,11 L-13,8 L-11,8 L-10,5 L-4,4 L-4,2 Z " fill="#02494D" transform="translate(362,330)"/>
<path d="M0,0 L1,0 L1,8 L0,4 L-7,7 L-11,8 L-12,11 L-16,10 Z " fill="#2BAF97" transform="translate(506,248)"/>
<path d="M0,0 L7,2 L14,6 L18,8 L16,10 L12,9 L12,7 L3,4 Z " fill="#25AA91" transform="translate(425,617)"/>
<path d="M0,0 L2,1 L-8,8 L-14,15 L-15,12 L-8,4 L-4,1 Z " fill="#014A50" transform="translate(493,423)"/>
<path d="M0,0 L1,0 L2,13 L5,22 L4,24 L0,16 Z " fill="#01494E" transform="translate(421,589)"/>
<path d="M0,0 L14,8 L13,11 L9,10 L8,7 L5,6 L5,4 L0,3 Z " fill="#024F57" transform="translate(338,409)"/>
<path d="M0,0 L6,1 L17,6 L18,9 L12,7 L0,1 Z " fill="#014D55" transform="translate(708,633)"/>
<path d="M0,0 L2,1 L-1,4 L-8,7 L-10,10 L-17,11 L-12,7 Z " fill="#02474D" transform="translate(623,633)"/>
<path d="M0,0 L5,0 L1,3 L-12,9 L-12,6 L-7,4 L-4,4 L-4,2 Z " fill="#015055" transform="translate(341,618)"/>
<path d="M0,0 L2,1 L-2,5 L-9,9 L-14,9 L-9,5 Z " fill="#024B51" transform="translate(666,608)"/>
<path d="M0,0 L2,1 L-2,5 L-12,10 L-15,10 L-12,7 Z " fill="#02454C" transform="translate(535,765)"/>
<path d="M0,0 L2,1 L-6,7 L-10,9 L-14,8 Z " fill="#01434B" transform="translate(644,621)"/>
<path d="M0,0 L4,1 L4,3 L-8,5 L-13,5 L-13,3 L-2,1 Z " fill="#27BA9E" transform="translate(508,390)"/>
<path d="M0,0 L2,1 L-6,7 L-14,11 L-17,10 Z " fill="#01464A" transform="translate(493,334)"/>
<path d="M0,0 L6,2 L15,6 L17,10 L11,8 L0,1 Z " fill="#2DB29C" transform="translate(388,625)"/>
<path d="M0,0 L1,2 L3,2 L5,7 L7,7 L9,12 L8,15 L1,5 Z " fill="#229382" transform="translate(562,413)"/>
<path d="M0,0 L2,1 L-1,2 L-3,6 L-13,10 L-16,9 L-8,5 L-5,5 L-5,3 Z " fill="#1FB594" transform="translate(419,374)"/>
<path d="M0,0 L2,1 L-1,4 L-11,10 L-15,9 Z " fill="#02464D" transform="translate(552,755)"/>
<path d="M0,0 L2,0 L2,2 L-12,10 L-12,7 L-8,6 L-7,3 Z " fill="#233A4B" transform="translate(601,741)"/>
<path d="M0,0 L2,0 L0,5 L-4,17 L-5,17 L-5,8 L-3,8 L-1,1 Z " fill="#014247" transform="translate(476,438)"/>
<path d="M0,0 L5,2 L10,5 L17,8 L14,10 L0,1 Z " fill="#29A793" transform="translate(315,394)"/>
<path d="M0,0 L2,1 L-3,5 L-10,9 L-13,8 Z " fill="#014348" transform="translate(734,379)"/>
<path d="M0,0 L14,8 L16,10 L12,9 L4,6 L4,4 L1,4 Z " fill="#025253" transform="translate(433,652)"/>
<path d="M0,0 L3,1 L-6,7 L-9,8 L-12,7 Z " fill="#014349" transform="translate(579,659)"/>
<path d="M0,0 L2,0 L2,2 L-5,8 L-7,11 L-9,11 L-7,6 Z " fill="#02484D" transform="translate(433,482)"/>
<path d="M0,0 L5,0 L0,4 L-7,8 L-9,8 L-8,5 L-3,4 L-2,1 Z " fill="#02464C" transform="translate(393,311)"/>
<path d="M0,0 L4,1 L14,7 L12,9 L7,6 L7,4 L2,3 L2,1 Z " fill="#02494C" transform="translate(485,764)"/>
<path d="M0,0 L5,1 L9,2 L9,4 L12,5 L12,7 L7,5 L0,1 Z " fill="#03434B" transform="translate(568,277)"/>
<path d="M0,0 L3,1 L-9,7 L-11,7 L-11,5 L-4,1 Z " fill="#004047" transform="translate(301,639)"/>
<path d="M0,0 L2,0 L2,2 L10,1 L6,4 L0,6 Z " fill="#339F91" transform="translate(282,633)"/>
<path d="M0,0 L5,0 L5,2 L10,3 L13,4 L14,7 L8,5 L0,1 Z " fill="#024E54" transform="translate(676,617)"/>
<path d="M0,0 L2,0 L2,4 L-3,8 L-5,8 L-4,4 Z " fill="#27B79C" transform="translate(471,403)"/>
<path d="M0,0 L2,0 L1,3 L-8,8 L-10,8 L-9,5 L-3,4 L-3,2 L0,2 Z " fill="#172C40" transform="translate(548,771)"/>
<path d="M0,0 L10,1 L14,3 L4,3 L0,2 Z " fill="#1E9A86" transform="translate(512,420)"/>
<path d="M0,0 L2,0 L0,4 L-6,7 L-10,6 Z " fill="#034E55" transform="translate(682,411)"/>
<path d="M0,0 L6,1 L13,5 L11,7 L1,2 Z " fill="#239383" transform="translate(631,406)"/>
<path d="M0,0 L3,1 L-9,8 L-11,8 L-11,6 L-8,6 L-8,4 Z " fill="#014A51" transform="translate(407,394)"/>
<path d="M0,0 L6,1 L6,3 L12,5 L12,8 L0,1 Z " fill="#03434A" transform="translate(525,252)"/>
<path d="M0,0 L5,0 L0,4 L-8,8 L-7,5 L-1,3 Z " fill="#203647" transform="translate(615,732)"/>
<path d="M0,0 L2,1 L-4,6 L-9,8 L-12,7 Z " fill="#01484E" transform="translate(548,677)"/>
<path d="M0,0 L2,1 L-11,9 L-12,7 L-3,1 Z " fill="#248F82" transform="translate(612,638)"/>
<path d="M0,0 L2,1 L-2,3 L-5,6 L-9,8 L-12,7 L-3,1 Z " fill="#16B292" transform="translate(316,618)"/>
<path d="M0,0 L0,3 L-4,11 L-6,12 L-3,2 Z " fill="#03494F" transform="translate(453,433)"/>
<path d="M0,0 L2,2 L5,7 L6,13 L4,13 L0,4 Z " fill="#26A18D" transform="translate(571,426)"/>
<path d="M0,0 L6,0 L2,2 L-7,5 L-7,2 Z " fill="#1AB394" transform="translate(504,422)"/>
<path d="M0,0 L2,1 L-4,6 L-8,8 L-11,7 Z " fill="#01484F" transform="translate(695,403)"/>
<path d="M0,0 L4,1 L-6,7 L-8,7 L-8,5 L-1,1 Z " fill="#014047" transform="translate(479,261)"/>
<path d="M0,0 L1,2 L-2,5 L-4,5 L-4,7 L-10,7 L-5,3 Z " fill="#209384" transform="translate(653,627)"/>
<path d="M0,0 L2,3 L3,10 L0,9 L-1,2 Z " fill="#1F917F" transform="translate(526,571)"/>
<path d="M0,0 L5,1 L9,4 L2,4 L0,5 Z " fill="#1EAF8D" transform="translate(283,390)"/>
<path d="M0,0 L2,1 L-3,6 L-8,7 L-8,5 Z " fill="#173044" transform="translate(696,685)"/>
<path d="M0,0 L3,1 L3,10 L0,9 Z " fill="#1C907D" transform="translate(521,549)"/>
<path d="M0,0 L6,0 L6,2 L-1,4 L-6,4 L-2,1 Z " fill="#2DA493" transform="translate(506,515)"/>
<path d="M0,0 L4,1 L-7,7 L-7,4 L-3,2 L0,2 Z " fill="#014950" transform="translate(380,319)"/>
<path d="M0,0 L5,3 L2,5 L1,13 L0,13 Z " fill="#319991" transform="translate(517,248)"/>
<path d="M0,0 L2,0 L2,2 L-7,7 L-7,4 Z M-8,7 Z " fill="#02454D" transform="translate(566,747)"/>
<path d="M0,0 L5,1 L10,3 L10,5 L12,5 L11,7 L0,1 Z " fill="#263D4E" transform="translate(310,678)"/>
<path d="M0,0 L2,1 L-6,8 L-8,5 Z M-8,8 Z " fill="#02444E" transform="translate(565,667)"/>
<path d="M0,0 L11,6 L9,8 L5,6 L5,4 L0,2 Z " fill="#034C4E" transform="translate(366,613)"/>
<path d="M0,0 L7,0 L10,2 L9,5 L5,2 L-1,3 Z " fill="#024E54" transform="translate(348,615)"/>
<path d="M0,0 Z M-1,1 L4,1 L0,5 L-5,7 L-3,3 Z " fill="#014851" transform="translate(719,396)"/>
<path d="M0,0 L2,0 L2,9 L0,6 L-1,4 L-4,2 Z " fill="#19987F" transform="translate(739,390)"/>
<path d="M0,0 L2,1 L-8,7 L-9,4 L-6,4 L-6,2 Z " fill="#29AA94" transform="translate(504,326)"/>
<path d="M0,0 L6,1 L11,4 L10,6 L0,1 Z " fill="#26A190" transform="translate(714,638)"/>
<path d="M0,0 L6,0 L2,3 L-5,6 L-5,4 L-1,3 Z " fill="#299F8F" transform="translate(314,620)"/>
<path d="M0,0 L2,1 L-1,4 L-6,6 L-10,7 L-6,3 Z " fill="#1AB493" transform="translate(391,407)"/>
<path d="M0,0 L2,1 L-1,4 L-4,6 L-8,5 Z " fill="#014D50" transform="translate(474,345)"/>
<path d="M0,0 L1,3 L-6,6 L-8,5 Z " fill="#2CB29D" transform="translate(511,335)"/>
<path d="M0,0 L2,2 L-9,8 L-7,4 Z " fill="#E2EEF2" transform="translate(392,296)"/>
<path d="M0,0 L5,2 L10,6 L4,5 L2,4 L2,2 L0,2 Z " fill="#02494A" transform="translate(403,716)"/>
<path d="M0,0 L3,1 L-6,6 L-5,2 Z " fill="#263C4E" transform="translate(710,678)"/>
<path d="M0,0 L3,1 L-7,6 L-7,3 Z " fill="#014950" transform="translate(628,640)"/>
<path d="M0,0 L10,5 L7,6 L2,4 Z " fill="#025459" transform="translate(393,629)"/>
<path d="M0,0 L5,1 L0,5 L-2,4 Z " fill="#1B947F" transform="translate(637,621)"/>
<path d="M0,0 L2,2 L-3,7 L-7,9 L-1,1 Z " fill="#14AA8A" transform="translate(602,611)"/>
<path d="M0,0 L1,3 L-3,10 L-4,7 L-2,2 Z " fill="#26AE96" transform="translate(499,519)"/>
<path d="M0,0 L2,0 L2,2 L-5,6 L-8,5 Z " fill="#00454A" transform="translate(466,359)"/>
<path d="M0,0 L6,1 L10,5 L7,5 L0,1 Z " fill="#024B51" transform="translate(551,267)"/>
<path d="M0,0 L8,4 L6,6 L0,3 Z " fill="#03464C" transform="translate(365,694)"/>
<path d="M0,0 L2,1 L-4,6 L-8,5 Z " fill="#014549" transform="translate(534,685)"/>
<path d="M0,0 L1,4 L-1,9 L-6,11 L-2,6 Z " fill="#044A4E" transform="translate(531,540)"/>
<path d="M0,0 L6,0 L8,1 L8,3 L0,2 Z " fill="#219682" transform="translate(512,515)"/>
<path d="M0,0 L2,0 L2,3 L0,3 L-2,7 L-5,9 L-4,5 L-2,4 Z " fill="#19B292" transform="translate(460,412)"/>
<path d="M0,0 L2,1 L0,4 L-4,6 L-8,5 Z " fill="#024E53" transform="translate(398,389)"/>
<path d="M0,0 L0,3 L-5,6 L-9,5 Z " fill="#1F3646" transform="translate(391,299)"/>
<path d="M0,0 L2,0 L0,4 L-7,5 L-3,2 Z " fill="#243A4C" transform="translate(466,255)"/>
<path d="M0,0 L5,2 L9,4 L8,6 L1,3 Z " fill="#20B396" transform="translate(462,667)"/>
<path d="M0,0 L4,2 L0,3 L-2,6 L-5,3 Z " fill="#369E92" transform="translate(292,645)"/>
<path d="M0,0 L3,1 L-5,6 L-4,2 Z " fill="#013844" transform="translate(288,636)"/>
<path d="M0,0 L9,5 L6,6 L-1,3 Z " fill="#319F8F" transform="translate(284,387)"/>
<path d="M0,0 L5,1 L7,5 L2,3 L0,2 Z " fill="#02414D" transform="translate(683,343)"/>
<path d="M0,0 L5,2 L1,6 L0,6 Z " fill="#339A91" transform="translate(517,770)"/>
<path d="M0,0 L4,1 L-5,6 L-5,4 Z " fill="#01494F" transform="translate(558,680)"/>
<path d="M0,0 L2,1 L3,9 L1,8 Z " fill="#003C44" transform="translate(528,573)"/>
<path d="M0,0 L4,2 L5,5 L0,3 L-3,1 Z " fill="#024A55" transform="translate(529,421)"/>
<path d="M0,0 L2,1 L-5,5 L-8,4 L-4,1 Z " fill="#21A08B" transform="translate(726,397)"/>
<path d="M0,0 L4,1 L-3,4 L-6,3 Z " fill="#24B397" transform="translate(449,357)"/>
<path d="M0,0 L5,1 L8,2 L9,5 L3,3 Z " fill="#02454E" transform="translate(671,337)"/>
<path d="M0,0 L4,1 L-3,5 L-5,5 L-5,3 Z " fill="#014B4F" transform="translate(413,300)"/>
<path d="M0,0 L1,0 L1,8 L0,4 L-4,3 Z " fill="#41ABA0" transform="translate(506,248)"/>
</svg>
